<mxfile host="app.diagrams.net" modified="2021-02-03T07:37:23.766Z" agent="5.0 (Windows NT 10.0; Win64; x64) AppleWebKit/537.36 (KHTML, like Gecko) Chrome/88.0.4324.104 Safari/537.36" etag="9OpBZfjT60tSwPCbXMcW" version="14.2.9" type="github">
  <diagram name="Page-1" id="822b0af5-4adb-64df-f703-e8dfc1f81529">
    <mxGraphModel dx="4570" dy="2173" grid="1" gridSize="10" guides="1" tooltips="1" connect="1" arrows="1" fold="1" page="1" pageScale="1" pageWidth="1100" pageHeight="850" background="#ffffff" math="0" shadow="0">
      <root>
        <mxCell id="0" />
        <mxCell id="1" parent="0" />
        <mxCell id="yoNtMCAK0_c3tLPSvV1g-1" value="" style="rounded=1;whiteSpace=wrap;html=1;fontSize=24;fontStyle=1" parent="1" vertex="1">
          <mxGeometry x="-880" y="-300" width="1450" height="220" as="geometry" />
        </mxCell>
        <mxCell id="yoNtMCAK0_c3tLPSvV1g-2" value="" style="rounded=1;whiteSpace=wrap;html=1;fontSize=24;fontStyle=1" parent="1" vertex="1">
          <mxGeometry x="-880" y="70" width="1460" height="250" as="geometry" />
        </mxCell>
        <mxCell id="yoNtMCAK0_c3tLPSvV1g-3" value="IDC 网络" style="text;html=1;strokeColor=none;fillColor=none;align=center;verticalAlign=middle;whiteSpace=wrap;rounded=0;fontSize=24;fontStyle=1" parent="1" vertex="1">
          <mxGeometry x="-270" y="-290" width="170" height="20" as="geometry" />
        </mxCell>
        <mxCell id="yoNtMCAK0_c3tLPSvV1g-4" value="OA网络" style="text;html=1;strokeColor=none;fillColor=none;align=center;verticalAlign=middle;whiteSpace=wrap;rounded=0;fontSize=24;fontStyle=1" parent="1" vertex="1">
          <mxGeometry x="-195" y="85" width="85" height="20" as="geometry" />
        </mxCell>
        <mxCell id="yoNtMCAK0_c3tLPSvV1g-18" value="" style="rounded=1;whiteSpace=wrap;html=1;fontSize=24;fontStyle=1" parent="1" vertex="1">
          <mxGeometry x="-850" y="-260" width="650" height="160" as="geometry" />
        </mxCell>
        <mxCell id="yoNtMCAK0_c3tLPSvV1g-19" value="云梯服务器" style="rounded=1;whiteSpace=wrap;html=1;fontSize=24;fontStyle=1" parent="1" vertex="1">
          <mxGeometry x="-170" y="-260" width="700" height="160" as="geometry" />
        </mxCell>
        <mxCell id="yoNtMCAK0_c3tLPSvV1g-29" value="" style="group;fontSize=24;fontStyle=1" parent="1" vertex="1" connectable="0">
          <mxGeometry x="-130" y="-244" width="240" height="74" as="geometry" />
        </mxCell>
        <mxCell id="yoNtMCAK0_c3tLPSvV1g-27" value="jarvis服务" style="rounded=1;whiteSpace=wrap;html=1;fontSize=24;fontStyle=1" parent="yoNtMCAK0_c3tLPSvV1g-29" vertex="1">
          <mxGeometry y="14" width="240" height="60" as="geometry" />
        </mxCell>
        <mxCell id="yoNtMCAK0_c3tLPSvV1g-28" value="jarvis soa" style="shape=process;whiteSpace=wrap;html=1;backgroundOutline=1;fontSize=24;fillColor=#ffe6cc;strokeColor=#d79b00;fontStyle=1" parent="yoNtMCAK0_c3tLPSvV1g-29" vertex="1">
          <mxGeometry x="28.42105263157895" width="173.6842105263158" height="30" as="geometry" />
        </mxCell>
        <mxCell id="yoNtMCAK0_c3tLPSvV1g-30" value="" style="group;fontSize=24;fontStyle=1" parent="1" vertex="1" connectable="0">
          <mxGeometry x="-890" y="-230" width="480" height="100" as="geometry" />
        </mxCell>
        <mxCell id="yoNtMCAK0_c3tLPSvV1g-23" value="jarvis服务" style="rounded=1;whiteSpace=wrap;html=1;fontSize=24;fontStyle=1" parent="yoNtMCAK0_c3tLPSvV1g-30" vertex="1">
          <mxGeometry x="60" y="18.92" width="440" height="81.08" as="geometry" />
        </mxCell>
        <mxCell id="yoNtMCAK0_c3tLPSvV1g-26" value="jarvis soa" style="shape=process;whiteSpace=wrap;html=1;backgroundOutline=1;fontSize=24;fillColor=#f8cecc;strokeColor=#b85450;fontStyle=1" parent="yoNtMCAK0_c3tLPSvV1g-30" vertex="1">
          <mxGeometry x="80" width="195.76" height="40" as="geometry" />
        </mxCell>
        <mxCell id="yoNtMCAK0_c3tLPSvV1g-35" value="jarvis soa" style="shape=process;whiteSpace=wrap;html=1;backgroundOutline=1;fontSize=24;fillColor=#d5e8d4;strokeColor=#82b366;fontStyle=1" parent="yoNtMCAK0_c3tLPSvV1g-30" vertex="1">
          <mxGeometry x="290" width="184.12" height="40" as="geometry" />
        </mxCell>
        <mxCell id="yoNtMCAK0_c3tLPSvV1g-32" value="CLB(内网)" style="shape=process;whiteSpace=wrap;html=1;backgroundOutline=1;fontSize=24;fillColor=#ffe6cc;strokeColor=#d79b00;fontStyle=1" parent="1" vertex="1">
          <mxGeometry x="10" y="-280" width="152.5" height="30" as="geometry" />
        </mxCell>
        <mxCell id="yoNtMCAK0_c3tLPSvV1g-33" value="CLB(外网)" style="shape=process;whiteSpace=wrap;html=1;backgroundOutline=1;fontSize=24;fillColor=#ffe6cc;strokeColor=#d79b00;fontStyle=1" parent="1" vertex="1">
          <mxGeometry x="182.5" y="-280" width="147.5" height="30" as="geometry" />
        </mxCell>
        <mxCell id="yoNtMCAK0_c3tLPSvV1g-36" value="" style="group;fontSize=24;fontStyle=1" parent="1" vertex="1" connectable="0">
          <mxGeometry x="260" y="-240" width="250" height="74" as="geometry" />
        </mxCell>
        <mxCell id="yoNtMCAK0_c3tLPSvV1g-37" value="jarvis服务" style="rounded=1;whiteSpace=wrap;html=1;fontSize=24;fontStyle=1" parent="yoNtMCAK0_c3tLPSvV1g-36" vertex="1">
          <mxGeometry x="-10" y="14" width="260" height="60" as="geometry" />
        </mxCell>
        <mxCell id="yoNtMCAK0_c3tLPSvV1g-38" value="jarvis soa" style="shape=process;whiteSpace=wrap;html=1;backgroundOutline=1;fontSize=24;fillColor=#e1d5e7;strokeColor=#9673a6;fontStyle=1" parent="yoNtMCAK0_c3tLPSvV1g-36" vertex="1">
          <mxGeometry x="16" width="215.90909090909088" height="30" as="geometry" />
        </mxCell>
        <mxCell id="yoNtMCAK0_c3tLPSvV1g-39" value="CLB(内网)" style="shape=process;whiteSpace=wrap;html=1;backgroundOutline=1;fontSize=24;fillColor=#e1d5e7;strokeColor=#9673a6;fontStyle=1" parent="1" vertex="1">
          <mxGeometry x="352.5" y="-280" width="147.5" height="30" as="geometry" />
        </mxCell>
        <mxCell id="yoNtMCAK0_c3tLPSvV1g-41" value="nginx(CVM)" style="rounded=1;whiteSpace=wrap;html=1;fontSize=24;fontStyle=1" parent="1" vertex="1">
          <mxGeometry x="-122.5" y="-161" width="632.5" height="55" as="geometry" />
        </mxCell>
        <mxCell id="yoNtMCAK0_c3tLPSvV1g-44" value="OAVPC服务器" style="rounded=1;whiteSpace=wrap;html=1;fontSize=24;fontStyle=1" parent="1" vertex="1">
          <mxGeometry x="-132.5" y="105" width="700" height="185" as="geometry" />
        </mxCell>
        <mxCell id="yoNtMCAK0_c3tLPSvV1g-46" value="nginx(CVM)" style="rounded=1;whiteSpace=wrap;html=1;fontSize=24;fontStyle=1" parent="1" vertex="1">
          <mxGeometry x="-110" y="117" width="630" height="55" as="geometry" />
        </mxCell>
        <mxCell id="yoNtMCAK0_c3tLPSvV1g-48" value="" style="group;fontSize=24;fontStyle=1" parent="1" vertex="1" connectable="0">
          <mxGeometry x="-110" y="210" width="630" height="74" as="geometry" />
        </mxCell>
        <mxCell id="yoNtMCAK0_c3tLPSvV1g-49" value="jarvis服务" style="rounded=1;whiteSpace=wrap;html=1;fontSize=24;fontStyle=1" parent="yoNtMCAK0_c3tLPSvV1g-48" vertex="1">
          <mxGeometry y="14" width="630" height="60" as="geometry" />
        </mxCell>
        <mxCell id="yoNtMCAK0_c3tLPSvV1g-50" value="jarvis soa" style="shape=process;whiteSpace=wrap;html=1;backgroundOutline=1;fontSize=24;gradientColor=#ea6b66;fillColor=#f8cecc;strokeColor=#b85450;fontStyle=1" parent="yoNtMCAK0_c3tLPSvV1g-48" vertex="1">
          <mxGeometry x="67.5" width="472.5" height="30" as="geometry" />
        </mxCell>
        <mxCell id="yoNtMCAK0_c3tLPSvV1g-51" value="" style="group;fontSize=24;fontStyle=1" parent="1" vertex="1" connectable="0">
          <mxGeometry x="-140" y="-56" width="710" height="90" as="geometry" />
        </mxCell>
        <mxCell id="yoNtMCAK0_c3tLPSvV1g-15" value="" style="rounded=1;whiteSpace=wrap;html=1;fontSize=24;fontStyle=1" parent="yoNtMCAK0_c3tLPSvV1g-51" vertex="1">
          <mxGeometry width="710" height="90" as="geometry" />
        </mxCell>
        <mxCell id="yoNtMCAK0_c3tLPSvV1g-16" value="应用网关" style="text;html=1;strokeColor=none;fillColor=none;align=center;verticalAlign=middle;whiteSpace=wrap;rounded=0;fontSize=24;fontStyle=1" parent="yoNtMCAK0_c3tLPSvV1g-51" vertex="1">
          <mxGeometry x="299.1203703703704" y="24" width="111.75925925925927" height="24" as="geometry" />
        </mxCell>
        <mxCell id="yoNtMCAK0_c3tLPSvV1g-86" value="oa-&amp;gt;idc rio config" style="ellipse;whiteSpace=wrap;html=1;fontSize=24;fillColor=#ffe6cc;strokeColor=#d79b00;fontStyle=1" parent="yoNtMCAK0_c3tLPSvV1g-51" vertex="1">
          <mxGeometry x="30" y="16" width="240" height="40" as="geometry" />
        </mxCell>
        <mxCell id="yoNtMCAK0_c3tLPSvV1g-88" value="idc-&amp;gt;oa rio config" style="ellipse;whiteSpace=wrap;html=1;fontSize=24;fillColor=#f8cecc;strokeColor=#b85450;gradientColor=#ea6b66;fontStyle=1" parent="yoNtMCAK0_c3tLPSvV1g-51" vertex="1">
          <mxGeometry x="440" y="16" width="220" height="40" as="geometry" />
        </mxCell>
        <mxCell id="yoNtMCAK0_c3tLPSvV1g-52" value="" style="rounded=1;whiteSpace=wrap;html=1;fontSize=24;fontStyle=1" parent="1" vertex="1">
          <mxGeometry x="-860" y="115" width="700" height="185" as="geometry" />
        </mxCell>
        <mxCell id="yoNtMCAK0_c3tLPSvV1g-55" value="" style="group;fontSize=24;fontStyle=1" parent="1" vertex="1" connectable="0">
          <mxGeometry x="-880" y="-55" width="680" height="100" as="geometry" />
        </mxCell>
        <mxCell id="yoNtMCAK0_c3tLPSvV1g-11" value="" style="rounded=1;whiteSpace=wrap;html=1;fontSize=24;fontStyle=1" parent="yoNtMCAK0_c3tLPSvV1g-55" vertex="1">
          <mxGeometry y="-10" width="680" height="110" as="geometry" />
        </mxCell>
        <mxCell id="yoNtMCAK0_c3tLPSvV1g-61" value="OSS 服务器" style="text;html=1;strokeColor=none;fillColor=none;align=center;verticalAlign=middle;whiteSpace=wrap;rounded=0;fontSize=24;fontStyle=1" parent="yoNtMCAK0_c3tLPSvV1g-55" vertex="1">
          <mxGeometry x="281.36" y="5" width="168.64" height="20" as="geometry" />
        </mxCell>
        <mxCell id="yoNtMCAK0_c3tLPSvV1g-62" value="" style="group;fontSize=24;fontStyle=1" parent="yoNtMCAK0_c3tLPSvV1g-55" vertex="1" connectable="0">
          <mxGeometry x="146.03873963515758" y="27" width="510" height="60" as="geometry" />
        </mxCell>
        <mxCell id="yoNtMCAK0_c3tLPSvV1g-12" value="OSS" style="text;html=1;strokeColor=none;fillColor=none;align=center;verticalAlign=middle;whiteSpace=wrap;rounded=0;fontSize=24;fontStyle=1" parent="yoNtMCAK0_c3tLPSvV1g-62" vertex="1">
          <mxGeometry x="279.3713189880501" y="10" width="108.5557125210709" height="20" as="geometry" />
        </mxCell>
        <mxCell id="yoNtMCAK0_c3tLPSvV1g-57" value="nginx" style="rounded=1;whiteSpace=wrap;html=1;fontSize=24;fontStyle=1" parent="yoNtMCAK0_c3tLPSvV1g-62" vertex="1">
          <mxGeometry x="-130" width="640" height="60" as="geometry" />
        </mxCell>
        <mxCell id="yoNtMCAK0_c3tLPSvV1g-59" value="oa-&amp;gt;idc server" style="ellipse;whiteSpace=wrap;html=1;fontSize=24;fillColor=#f8cecc;strokeColor=#b85450;fontStyle=1" parent="yoNtMCAK0_c3tLPSvV1g-62" vertex="1">
          <mxGeometry x="-80" y="7.5" width="222.09" height="40" as="geometry" />
        </mxCell>
        <mxCell id="yoNtMCAK0_c3tLPSvV1g-60" value="idc-&amp;gt;oa server" style="ellipse;whiteSpace=wrap;html=1;fontSize=24;fillColor=#dae8fc;strokeColor=#6c8ebf;fontStyle=1" parent="yoNtMCAK0_c3tLPSvV1g-62" vertex="1">
          <mxGeometry x="229.88" y="7.5" width="230.12" height="42.5" as="geometry" />
        </mxCell>
        <mxCell id="yoNtMCAK0_c3tLPSvV1g-63" value="" style="group;fontSize=24;fontStyle=1" parent="1" vertex="1" connectable="0">
          <mxGeometry x="-797.5" y="160.5" width="380" height="89.5" as="geometry" />
        </mxCell>
        <mxCell id="yoNtMCAK0_c3tLPSvV1g-64" value="jarvis服务" style="rounded=1;whiteSpace=wrap;html=1;fontSize=24;fontStyle=1" parent="yoNtMCAK0_c3tLPSvV1g-63" vertex="1">
          <mxGeometry y="16.93243243243243" width="380" height="72.56756756756756" as="geometry" />
        </mxCell>
        <mxCell id="yoNtMCAK0_c3tLPSvV1g-65" value="jarvis soa" style="shape=process;whiteSpace=wrap;html=1;backgroundOutline=1;fontSize=24;fillColor=#dae8fc;strokeColor=#6c8ebf;fontStyle=1" parent="yoNtMCAK0_c3tLPSvV1g-63" vertex="1">
          <mxGeometry x="22.5" width="337.5" height="36.28378378378378" as="geometry" />
        </mxCell>
        <mxCell id="yoNtMCAK0_c3tLPSvV1g-67" value="" style="group;fontSize=24;fontStyle=1" parent="1" vertex="1" connectable="0">
          <mxGeometry x="-880" y="-420" width="1450" height="100" as="geometry" />
        </mxCell>
        <mxCell id="yoNtMCAK0_c3tLPSvV1g-9" value="" style="rounded=1;whiteSpace=wrap;html=1;fontSize=24;fontStyle=1" parent="yoNtMCAK0_c3tLPSvV1g-67" vertex="1">
          <mxGeometry width="1450.0000000000002" height="100" as="geometry" />
        </mxCell>
        <mxCell id="yoNtMCAK0_c3tLPSvV1g-10" value="公网" style="text;html=1;strokeColor=none;fillColor=none;align=center;verticalAlign=middle;whiteSpace=wrap;rounded=0;fontSize=24;fontStyle=1" parent="yoNtMCAK0_c3tLPSvV1g-67" vertex="1">
          <mxGeometry x="672.5" y="20" width="85" height="20" as="geometry" />
        </mxCell>
        <mxCell id="yoNtMCAK0_c3tLPSvV1g-69" value="&lt;h1 style=&quot;font-size: 21px;&quot;&gt;&lt;span style=&quot;font-size: 21px;&quot;&gt;【OA版本】外网：https://jarvis-api.tencent.com/&lt;/span&gt;&lt;/h1&gt;" style="text;html=1;strokeColor=#82b366;fillColor=#d5e8d4;align=right;verticalAlign=middle;whiteSpace=wrap;rounded=0;fontSize=21;fontStyle=1" parent="1" vertex="1">
          <mxGeometry x="-1370" y="-370" width="480" height="40" as="geometry" />
        </mxCell>
        <mxCell id="yoNtMCAK0_c3tLPSvV1g-70" value="&lt;h1 style=&quot;font-size: 21px;&quot;&gt;&lt;span style=&quot;font-size: 21px;&quot;&gt;【OA版本】IDC-&amp;gt;OA：http://srv.jarvis-api.oss.oa.com&lt;/span&gt;&lt;br style=&quot;font-size: 21px;&quot;&gt;&lt;/h1&gt;" style="text;html=1;strokeColor=#6c8ebf;fillColor=#dae8fc;align=right;verticalAlign=middle;whiteSpace=wrap;rounded=0;fontSize=21;fontStyle=1" parent="1" vertex="1">
          <mxGeometry x="-1430" y="-60" width="540" height="40" as="geometry" />
        </mxCell>
        <mxCell id="yoNtMCAK0_c3tLPSvV1g-71" value="&lt;h1 style=&quot;font-size: 21px;&quot;&gt;&lt;span style=&quot;font-size: 21px;&quot;&gt;【OA版本】OA-&amp;gt;IDC：http://srv.jarvis-api.idc.oa.com/&lt;/span&gt;&lt;br style=&quot;font-size: 21px;&quot;&gt;&lt;/h1&gt;" style="text;html=1;strokeColor=#b85450;fillColor=#f8cecc;align=right;verticalAlign=middle;whiteSpace=wrap;rounded=0;fontSize=21;fontStyle=1" parent="1" vertex="1">
          <mxGeometry x="-1430" y="10" width="540" height="40" as="geometry" />
        </mxCell>
        <mxCell id="yoNtMCAK0_c3tLPSvV1g-72" value="&lt;h1 style=&quot;font-size: 21px;&quot;&gt;&lt;span style=&quot;font-size: 21px;&quot;&gt;【OA版本】OA：http://srv.jarvis-api.oa.com/&lt;/span&gt;&lt;br style=&quot;font-size: 21px;&quot;&gt;&lt;/h1&gt;" style="text;html=1;strokeColor=#6c8ebf;fillColor=#dae8fc;align=right;verticalAlign=middle;whiteSpace=wrap;rounded=0;fontSize=21;fontStyle=1" parent="1" vertex="1">
          <mxGeometry x="-1340" y="177.5" width="450" height="40" as="geometry" />
        </mxCell>
        <mxCell id="yoNtMCAK0_c3tLPSvV1g-73" value="&lt;h1 style=&quot;font-size: 21px;&quot;&gt;&lt;span style=&quot;font-size: 21px;&quot;&gt;【Cloud版本】OA-&amp;gt;IDC：http://oa-idc.jarvis-api.woa.com/&lt;/span&gt;&lt;br style=&quot;font-size: 21px;&quot;&gt;&lt;/h1&gt;" style="text;html=1;strokeColor=#d79b00;fillColor=#ffe6cc;align=left;verticalAlign=middle;whiteSpace=wrap;rounded=0;fontSize=21;fontStyle=1" parent="1" vertex="1">
          <mxGeometry x="587" y="124.5" width="583" height="40" as="geometry" />
        </mxCell>
        <mxCell id="yoNtMCAK0_c3tLPSvV1g-74" value="&lt;h1 style=&quot;font-size: 21px;&quot;&gt;&lt;span style=&quot;font-size: 21px;&quot;&gt;【Cloud版本】OA：http://jarvis-api.woa.com&lt;/span&gt;&lt;br style=&quot;font-size: 21px;&quot;&gt;&lt;/h1&gt;" style="text;html=1;strokeColor=#b85450;fillColor=#f8cecc;align=left;verticalAlign=middle;whiteSpace=wrap;rounded=0;fontSize=21;gradientColor=#ea6b66;fontStyle=1" parent="1" vertex="1">
          <mxGeometry x="587" y="194.5" width="530" height="40" as="geometry" />
        </mxCell>
        <mxCell id="yoNtMCAK0_c3tLPSvV1g-75" value="&lt;h1 style=&quot;font-size: 21px;&quot;&gt;&lt;span style=&quot;font-size: 21px;&quot;&gt;【Cloud版本】IDC-&amp;gt;OA：http://idc.jarvis-api.woa.com/&lt;/span&gt;&lt;br style=&quot;font-size: 21px;&quot;&gt;&lt;/h1&gt;" style="text;html=1;strokeColor=#b85450;fillColor=#f8cecc;align=left;verticalAlign=middle;whiteSpace=wrap;rounded=0;fontSize=21;gradientColor=#ea6b66;fontStyle=1" parent="1" vertex="1">
          <mxGeometry x="587" y="-166" width="553" height="40" as="geometry" />
        </mxCell>
        <mxCell id="yoNtMCAK0_c3tLPSvV1g-76" value="&lt;h1 style=&quot;font-size: 21px;&quot;&gt;&lt;span style=&quot;font-size: 21px;&quot;&gt;【Cloud版本】IDC：http://jarvis-api-idc.woa.com/&lt;/span&gt;&lt;br style=&quot;font-size: 21px;&quot;&gt;&lt;/h1&gt;" style="text;html=1;strokeColor=#d79b00;fillColor=#ffe6cc;align=left;verticalAlign=middle;whiteSpace=wrap;rounded=0;fontSize=21;fontStyle=1" parent="1" vertex="1">
          <mxGeometry x="587" y="-238" width="510" height="40" as="geometry" />
        </mxCell>
        <mxCell id="yoNtMCAK0_c3tLPSvV1g-77" value="&lt;h1 style=&quot;font-size: 21px;&quot;&gt;&lt;span style=&quot;font-size: 21px;&quot;&gt;【Cloud版本】外网：https://idc-jarvis.tencent.com/&lt;/span&gt;&lt;br style=&quot;font-size: 21px;&quot;&gt;&lt;/h1&gt;" style="text;html=1;strokeColor=#d79b00;fillColor=#ffe6cc;align=left;verticalAlign=middle;whiteSpace=wrap;rounded=0;fontSize=21;fontStyle=1" parent="1" vertex="1">
          <mxGeometry x="587" y="-290" width="533" height="40" as="geometry" />
        </mxCell>
        <mxCell id="yoNtMCAK0_c3tLPSvV1g-78" value="&lt;h1 style=&quot;font-size: 21px;&quot;&gt;&lt;span style=&quot;font-size: 21px;&quot;&gt;【OA版本】腾讯云：http://cloud.jarvis-api.oa.com/&lt;/span&gt;&lt;br style=&quot;font-size: 21px;&quot;&gt;&lt;/h1&gt;" style="text;html=1;strokeColor=#9673a6;fillColor=#e1d5e7;align=left;verticalAlign=middle;whiteSpace=wrap;rounded=0;fontSize=21;fontStyle=1" parent="1" vertex="1">
          <mxGeometry x="1110" y="-240" width="520" height="40" as="geometry" />
        </mxCell>
        <mxCell id="yoNtMCAK0_c3tLPSvV1g-79" style="edgeStyle=orthogonalEdgeStyle;rounded=0;orthogonalLoop=1;jettySize=auto;html=1;exitX=0.5;exitY=1;exitDx=0;exitDy=0;fontSize=21;align=left;fontStyle=1" parent="1" source="yoNtMCAK0_c3tLPSvV1g-75" target="yoNtMCAK0_c3tLPSvV1g-75" edge="1">
          <mxGeometry relative="1" as="geometry" />
        </mxCell>
        <mxCell id="yoNtMCAK0_c3tLPSvV1g-89" value="oa-&amp;gt;idc server" style="ellipse;whiteSpace=wrap;html=1;fontSize=24;fillColor=#ffe6cc;strokeColor=#d79b00;fontStyle=1" parent="1" vertex="1">
          <mxGeometry x="-80" y="124" width="190" height="40" as="geometry" />
        </mxCell>
        <mxCell id="yoNtMCAK0_c3tLPSvV1g-92" value="idc-&amp;gt;oa server" style="ellipse;whiteSpace=wrap;html=1;fontSize=24;fillColor=#f8cecc;strokeColor=#b85450;gradientColor=#ea6b66;fontStyle=1" parent="1" vertex="1">
          <mxGeometry x="310" y="-153.5" width="180" height="40" as="geometry" />
        </mxCell>
        <mxCell id="yoNtMCAK0_c3tLPSvV1g-94" style="edgeStyle=orthogonalEdgeStyle;rounded=0;orthogonalLoop=1;jettySize=auto;html=1;exitX=0.5;exitY=1;exitDx=0;exitDy=0;fontSize=21;align=left;fontStyle=1" parent="1" source="yoNtMCAK0_c3tLPSvV1g-74" target="yoNtMCAK0_c3tLPSvV1g-74" edge="1">
          <mxGeometry relative="1" as="geometry" />
        </mxCell>
        <mxCell id="yoNtMCAK0_c3tLPSvV1g-96" value="&lt;h1&gt;现有部署情况图&lt;/h1&gt;&lt;p style=&quot;font-size: 24px&quot;&gt;&lt;font style=&quot;font-size: 24px&quot;&gt;针对生产环境，jarvis API 网关部署情况进行梳理&lt;/font&gt;&lt;/p&gt;&lt;p style=&quot;font-size: 24px&quot;&gt;&lt;font style=&quot;font-size: 24px&quot;&gt;备注：颜色相同，表示，其部署为一套环境，不同地址只是代表不同的出口。用户只需关心自己客户端的调用所在环境进行选择&lt;/font&gt;&lt;/p&gt;" style="text;html=1;strokeColor=none;fillColor=none;spacing=5;spacingTop=-20;whiteSpace=wrap;overflow=hidden;rounded=0;fontSize=21;" parent="1" vertex="1">
          <mxGeometry x="-864" y="-630" width="1460" height="200" as="geometry" />
        </mxCell>
        <mxCell id="GjJPIehkcqfWd4aiCNTC-1" value="stgw(外网)" style="shape=process;whiteSpace=wrap;html=1;backgroundOutline=1;fontSize=24;fillColor=#d5e8d4;strokeColor=#82b366;fontStyle=1" vertex="1" parent="1">
          <mxGeometry x="-570" y="-270" width="200" height="30" as="geometry" />
        </mxCell>
        <mxCell id="GjJPIehkcqfWd4aiCNTC-2" value="IDC 服务器" style="text;html=1;strokeColor=none;fillColor=none;align=center;verticalAlign=middle;whiteSpace=wrap;rounded=0;fontSize=24;fontStyle=1" vertex="1" parent="1">
          <mxGeometry x="-380" y="-181" width="160" height="20" as="geometry" />
        </mxCell>
        <mxCell id="GjJPIehkcqfWd4aiCNTC-4" value="&lt;span style=&quot;&quot;&gt;OA 服务器&lt;/span&gt;" style="text;html=1;strokeColor=none;fillColor=none;align=center;verticalAlign=middle;whiteSpace=wrap;rounded=0;fontSize=24;fontStyle=1" vertex="1" parent="1">
          <mxGeometry x="-390" y="197.5" width="180" height="22.5" as="geometry" />
        </mxCell>
      </root>
    </mxGraphModel>
  </diagram>
</mxfile>
